<?xml version="1.0" encoding="UTF-8" standalone="no"?>
<!DOCTYPE svg PUBLIC "-//W3C//DTD SVG 1.1//EN" "http://www.w3.org/Graphics/SVG/1.1/DTD/svg11.dtd">
<svg width="100%" height="100%" viewBox="0 0 250 250" version="1.1" xmlns="http://www.w3.org/2000/svg" xmlns:xlink="http://www.w3.org/1999/xlink" xml:space="preserve" xmlns:serif="http://www.serif.com/" style="fill-rule:evenodd;clip-rule:evenodd;stroke-linejoin:round;stroke-miterlimit:2;">
    <g transform="matrix(1.16713,0,0,1.17851,-19.019,-40.5492)">
        <path d="M109.849,38.24C118.33,33.827 128.461,33.827 136.942,38.24C160.868,50.739 184.61,63.966 207.794,77.712C216.294,82.772 221.611,91.768 221.903,101.586C222.625,127.445 222.625,153.502 221.903,179.36C221.61,189.178 216.294,198.174 207.794,203.234C184.61,216.981 160.868,230.208 136.942,242.707C128.461,247.119 118.33,247.12 109.849,242.707C85.923,230.208 62.181,216.981 38.998,203.235C30.497,198.174 25.18,189.178 24.888,179.36C24.166,153.502 24.166,127.445 24.889,101.586C25.181,91.769 30.497,82.773 38.998,77.712C62.181,63.966 85.923,50.739 109.849,38.24Z" style="fill:rgb(7,77,57);"/>
    </g>
    <g transform="matrix(1,0,0,1,-0.997533,1.22341)">
        <g transform="matrix(0.367638,0,0,0.367638,-2.77912,19.8085)">
            <path d="M577.36,184.8L123.2,184.8C107.52,184.8 95.2,197.12 95.2,212.8L95.2,352.8C95.2,368.48 107.52,380.8 123.2,380.8L553.28,380.8C581.839,380.8 605.358,357.839 605.358,328.722L605.362,212.802C605.362,197.122 593.042,184.802 577.362,184.802L577.36,184.8ZM385.84,357.84L123.2,357.84C120.399,357.84 117.598,355.039 117.598,352.238L117.602,212.798C117.602,209.998 120.403,207.197 123.204,207.197L385.844,207.197L385.84,357.84ZM582.96,328.719C582.96,344.957 569.519,358.399 553.28,358.399L408.24,358.399L408.24,207.199L577.36,207.199C580.719,207.199 582.962,210 582.962,212.801L582.96,328.719Z" style="fill:white;fill-rule:nonzero;"/>
        </g>
        <g transform="matrix(0.367638,0,0,0.367638,-2.77912,19.8085)">
            <path d="M542.08,255.92C540.4,254.24 538.158,253.682 535.92,253.682C533.682,253.682 531.439,254.803 529.76,255.92L497.28,288.4L464.8,255.92C463.12,254.24 460.878,253.682 458.639,253.682C456.401,253.682 454.159,254.803 452.479,255.92L447.44,260.959C445.76,262.639 444.639,264.881 444.639,267.119C444.639,269.358 445.76,271.6 447.44,273.279L491.12,316.959C492.8,318.639 495.042,319.76 497.28,319.76C499.519,319.76 501.761,318.639 503.44,316.959L547.12,273.279C548.8,271.6 549.359,269.358 549.359,267.119C549.359,264.881 548.238,262.639 547.12,260.959L542.08,255.92Z" style="fill:white;fill-rule:nonzero;"/>
        </g>
    </g>
    <g transform="matrix(1.08328,0,0,1.08328,28.3852,6.60391)">
        <path d="M28.573,112.476L24.978,112.476C24.432,112.476 24.017,112.349 23.732,112.095C23.448,111.84 23.306,111.512 23.306,111.111C23.306,110.701 23.444,110.369 23.721,110.115C23.998,109.861 24.417,109.734 24.978,109.734L28.573,109.734C29.134,109.734 29.553,109.861 29.83,110.115C30.106,110.369 30.245,110.701 30.245,111.111C30.245,111.512 30.108,111.84 29.835,112.095C29.562,112.349 29.141,112.476 28.573,112.476Z" style="fill:white;fill-rule:nonzero;"/>
        <path d="M39.964,115.718L39.964,113.602L34.253,113.602C33.533,113.602 32.993,113.439 32.632,113.113C32.272,112.787 32.092,112.343 32.092,111.782C32.092,111.638 32.119,111.492 32.172,111.344C32.225,111.196 32.304,111.04 32.411,110.877C32.517,110.714 32.627,110.557 32.741,110.405C32.854,110.254 32.995,110.068 33.161,109.848L39.19,101.783C39.585,101.252 39.909,100.867 40.163,100.628C40.417,100.389 40.722,100.27 41.079,100.27C42.232,100.27 42.808,100.929 42.808,102.249L42.808,111.054L43.297,111.054C43.881,111.054 44.349,111.133 44.702,111.293C45.055,111.452 45.231,111.801 45.231,112.339C45.231,112.779 45.087,113.099 44.799,113.3C44.51,113.501 44.078,113.602 43.502,113.602L42.808,113.602L42.808,115.718C42.808,116.302 42.679,116.736 42.421,117.02C42.163,117.305 41.818,117.447 41.386,117.447C40.961,117.447 40.618,117.301 40.356,117.009C40.095,116.717 39.964,116.286 39.964,115.718ZM35.073,111.054L39.964,111.054L39.964,104.444L35.073,111.054Z" style="fill:white;fill-rule:nonzero;"/>
        <path d="M50.85,114.478L56.788,114.478C57.38,114.478 57.831,114.599 58.142,114.842C58.453,115.084 58.609,115.414 58.609,115.831C58.609,116.203 58.485,116.518 58.239,116.776C57.992,117.033 57.619,117.162 57.118,117.162L48.746,117.162C48.177,117.162 47.734,117.005 47.415,116.69C47.096,116.376 46.937,116.006 46.937,115.581C46.937,115.308 47.04,114.946 47.244,114.495C47.449,114.044 47.673,113.689 47.916,113.431C48.924,112.385 49.834,111.488 50.646,110.741C51.457,109.994 52.037,109.503 52.386,109.268C53.008,108.828 53.526,108.386 53.939,107.942C54.352,107.499 54.667,107.044 54.883,106.577C55.099,106.111 55.207,105.654 55.207,105.207C55.207,104.721 55.092,104.287 54.86,103.904C54.629,103.521 54.314,103.223 53.916,103.011C53.518,102.799 53.084,102.693 52.614,102.693C51.62,102.693 50.839,103.129 50.27,104.001C50.194,104.115 50.067,104.425 49.889,104.934C49.711,105.442 49.51,105.832 49.286,106.105C49.063,106.378 48.735,106.515 48.302,106.515C47.923,106.515 47.608,106.39 47.358,106.139C47.108,105.889 46.983,105.548 46.983,105.116C46.983,104.592 47.1,104.046 47.335,103.478C47.57,102.909 47.921,102.393 48.388,101.93C48.854,101.468 49.446,101.094 50.162,100.81C50.879,100.526 51.719,100.383 52.682,100.383C53.842,100.383 54.832,100.565 55.651,100.929C56.182,101.172 56.648,101.506 57.05,101.93C57.452,102.355 57.765,102.846 57.989,103.404C58.212,103.961 58.324,104.539 58.324,105.138C58.324,106.079 58.091,106.934 57.625,107.704C57.158,108.473 56.682,109.076 56.197,109.512C55.712,109.948 54.898,110.633 53.757,111.566C52.616,112.498 51.833,113.223 51.408,113.738C51.226,113.943 51.04,114.19 50.85,114.478Z" style="fill:white;fill-rule:nonzero;"/>
        <path d="M67.652,115.718L67.652,113.602L61.942,113.602C61.221,113.602 60.681,113.439 60.321,113.113C59.96,112.787 59.78,112.343 59.78,111.782C59.78,111.638 59.807,111.492 59.86,111.344C59.913,111.196 59.993,111.04 60.099,110.877C60.205,110.714 60.315,110.557 60.429,110.405C60.542,110.254 60.683,110.068 60.85,109.848L66.879,101.783C67.273,101.252 67.597,100.867 67.851,100.628C68.105,100.389 68.411,100.27 68.767,100.27C69.92,100.27 70.496,100.929 70.496,102.249L70.496,111.054L70.985,111.054C71.569,111.054 72.037,111.133 72.39,111.293C72.743,111.452 72.919,111.801 72.919,112.339C72.919,112.779 72.775,113.099 72.487,113.3C72.199,113.501 71.766,113.602 71.19,113.602L70.496,113.602L70.496,115.718C70.496,116.302 70.367,116.736 70.109,117.02C69.851,117.305 69.506,117.447 69.074,117.447C68.649,117.447 68.306,117.301 68.045,117.009C67.783,116.717 67.652,116.286 67.652,115.718ZM62.761,111.054L67.652,111.054L67.652,104.444L62.761,111.054Z" style="fill:white;fill-rule:nonzero;"/>
        <path d="M78.539,114.478L84.477,114.478C85.068,114.478 85.519,114.599 85.83,114.842C86.141,115.084 86.297,115.414 86.297,115.831C86.297,116.203 86.173,116.518 85.927,116.776C85.681,117.033 85.307,117.162 84.807,117.162L76.434,117.162C75.865,117.162 75.422,117.005 75.103,116.69C74.785,116.376 74.625,116.006 74.625,115.581C74.625,115.308 74.728,114.946 74.933,114.495C75.137,114.044 75.361,113.689 75.604,113.431C76.612,112.385 77.522,111.488 78.334,110.741C79.145,109.994 79.725,109.503 80.074,109.268C80.696,108.828 81.214,108.386 81.627,107.942C82.04,107.499 82.355,107.044 82.571,106.577C82.787,106.111 82.895,105.654 82.895,105.207C82.895,104.721 82.78,104.287 82.548,103.904C82.317,103.521 82.002,103.223 81.604,103.011C81.206,102.799 80.772,102.693 80.302,102.693C79.308,102.693 78.527,103.129 77.958,104.001C77.883,104.115 77.756,104.425 77.577,104.934C77.399,105.442 77.198,105.832 76.974,106.105C76.751,106.378 76.423,106.515 75.99,106.515C75.611,106.515 75.297,106.39 75.046,106.139C74.796,105.889 74.671,105.548 74.671,105.116C74.671,104.592 74.788,104.046 75.024,103.478C75.259,102.909 75.609,102.393 76.076,101.93C76.542,101.468 77.134,101.094 77.85,100.81C78.567,100.526 79.407,100.383 80.37,100.383C81.53,100.383 82.52,100.565 83.339,100.929C83.87,101.172 84.336,101.506 84.738,101.93C85.14,102.355 85.453,102.846 85.677,103.404C85.9,103.961 86.012,104.539 86.012,105.138C86.012,106.079 85.779,106.934 85.313,107.704C84.846,108.473 84.37,109.076 83.885,109.512C83.4,109.948 82.586,110.633 81.445,111.566C80.304,112.498 79.521,113.223 79.096,113.738C78.914,113.943 78.728,114.19 78.539,114.478Z" style="fill:white;fill-rule:nonzero;"/>
    </g>
</svg>
